{
  "asset": {
    "extras": {
      "author": "MrEliptik (https://sketchfab.com/mreliptik)",
      "license": "CC-BY-4.0 (http://creativecommons.org/licenses/by/4.0/)",
      "source": "https://sketchfab.com/3d-models/low-poly-crt-tv-e493838af1d64800bc2008c231925f11",
      "title": "Low poly CRT TV"
    },
    "generator": "gltfeditor.com",
    "version": "2.0"
  },
  "buffers": [
    {
      "uri": "data:application/octet-stream;base64,",
      "byteLength": 32308
    }
  ],
  "bufferViews": [
    {
      "buffer": 0,
      "byteOffset": 16636,
      "byteLength": 15672,
      "target": 34962,
      "byteStride": 12
    },
    {
      "buffer": 0,
      "byteOffset": 11412,
      "byteLength": 5224,
      "target": 34962,
      "byteStride": 8
    },
    {
      "buffer": 0,
      "byteOffset": 0,
      "byteLength": 11412,
      "target": 34963
    }
  ],
  "accessors": [
    {
      "bufferView": 0,
      "byteOffset": 576,
      "componentType": 5126,
      "normalized": false,
      "count": 48,
      "max": [
        1,
        1,
        1
      ],
      "min": [
        -1,
        -1,
        -1
      ],
      "type": "VEC3"
    },
    {
      "bufferView": 0,
      "byteOffset": 0,
      "componentType": 5126,
      "normalized": false,
      "count": 48,
      "max": [
        1.3741710186004639,
        0.8795044422149658,
        0.9419689178466797
      ],
      "min": [
        0.9719049334526062,
        -0.957600474357605,
        0.912869930267334
      ],
      "type": "VEC3"
    },
    {
      "bufferView": 1,
      "byteOffset": 0,
      "componentType": 5126,
      "normalized": false,
      "count": 48,
      "max": [
        0.875,
        1
      ],
      "min": [
        0.125,
        0
      ],
      "type": "VEC2"
    },
    {
      "bufferView": 2,
      "byteOffset": 0,
      "componentType": 5125,
      "normalized": false,
      "count": 72,
      "max": [
        47
      ],
      "min": [
        0
      ],
      "type": "SCALAR"
    },
    {
      "bufferView": 0,
      "byteOffset": 1704,
      "componentType": 5126,
      "normalized": false,
      "count": 46,
      "max": [
        1,
        1,
        1
      ],
      "min": [
        -1,
        -1,
        -1
      ],
      "type": "VEC3"
    },
    {
      "bufferView": 0,
      "byteOffset": 1152,
      "componentType": 5126,
      "normalized": false,
      "count": 46,
      "max": [
        1.4392414093017578,
        1,
        1.0440243482589722
      ],
      "min": [
        -1.4181900024414062,
        -1.0000001192092896,
        -1.0819588899612427
      ],
      "type": "VEC3"
    },
    {
      "bufferView": 1,
      "byteOffset": 384,
      "componentType": 5126,
      "normalized": false,
      "count": 46,
      "max": [
        0.875,
        1
      ],
      "min": [
        0.125,
        0
      ],
      "type": "VEC2"
    },
    {
      "bufferView": 2,
      "byteOffset": 288,
      "componentType": 5125,
      "normalized": false,
      "count": 72,
      "max": [
        45
      ],
      "min": [
        0
      ],
      "type": "SCALAR"
    },
    {
      "bufferView": 0,
      "byteOffset": 3588,
      "componentType": 5126,
      "normalized": false,
      "count": 111,
      "max": [
        0.9701119065284729,
        1,
        1
      ],
      "min": [
        -0.9710450768470764,
        -1,
        -1
      ],
      "type": "VEC3"
    },
    {
      "bufferView": 0,
      "byteOffset": 2256,
      "componentType": 5126,
      "normalized": false,
      "count": 111,
      "max": [
        0.42806825041770935,
        1.9446903467178345,
        0.21549947559833527
      ],
      "min": [
        -0.35631003975868225,
        0.639244794845581,
        -0.34147077798843384
      ],
      "type": "VEC3"
    },
    {
      "bufferView": 1,
      "byteOffset": 752,
      "componentType": 5126,
      "normalized": false,
      "count": 111,
      "max": [
        1,
        1
      ],
      "min": [
        0,
        0
      ],
      "type": "VEC2"
    },
    {
      "bufferView": 2,
      "byteOffset": 576,
      "componentType": 5125,
      "normalized": false,
      "count": 312,
      "max": [
        110
      ],
      "min": [
        0
      ],
      "type": "SCALAR"
    },
    {
      "bufferView": 0,
      "byteOffset": 10296,
      "componentType": 5126,
      "normalized": false,
      "count": 448,
      "max": [
        0.9983908534049988,
        0.8896024823188782,
        0.9999936819076538
      ],
      "min": [
        -0.06018345430493355,
        -0.24824409186840057,
        -0.9973890781402588
      ],
      "type": "VEC3"
    },
    {
      "bufferView": 0,
      "byteOffset": 4920,
      "componentType": 5126,
      "normalized": false,
      "count": 448,
      "max": [
        0.7683091759681702,
        0.8693159818649292,
        1.1908032894134521
      ],
      "min": [
        -1.2642138004302979,
        -0.8510516881942749,
        1.066523551940918
      ],
      "type": "VEC3"
    },
    {
      "bufferView": 1,
      "byteOffset": 1640,
      "componentType": 5126,
      "normalized": false,
      "count": 448,
      "max": [
        0.625,
        0.7523751854896545
      ],
      "min": [
        0.29623618721961975,
        0.4975462555885315
      ],
      "type": "VEC2"
    },
    {
      "bufferView": 2,
      "byteOffset": 1824,
      "componentType": 5125,
      "normalized": false,
      "count": 2397,
      "max": [
        447
      ],
      "min": [
        0
      ],
      "type": "SCALAR"
    }
  ],
  "scene": 0,
  "scenes": [
    {
      "nodes": [
        8
      ],
      "name": "Sketchfab_Scene"
    }
  ],
  "nodes": [
    {
      "name": "Object_4",
      "mesh": 0
    },
    {
      "name": "Object_5",
      "mesh": 1
    },
    {
      "name": "Object_6",
      "mesh": 2
    },
    {
      "name": "BodyFrame_0",
      "children": [
        0,
        1,
        2
      ]
    },
    {
      "name": "Object_8",
      "mesh": 3
    },
    {
      "name": "Screen_1",
      "children": [
        4
      ]
    },
    {
      "name": "GLTF_SceneRootNode",
      "children": [
        3,
        5
      ],
      "matrix": [
        1,
        0,
        0,
        0,
        0,
        3.4228538225988814e-8,
        0.9999998807907104,
        0,
        0,
        -0.9999998807907104,
        3.4228538225988814e-8,
        0,
        0,
        0,
        0,
        1
      ]
    },
    {
      "name": "root",
      "children": [
        6
      ]
    },
    {
      "name": "Sketchfab_model",
      "children": [
        7
      ],
      "matrix": [
        1,
        0,
        0,
        0,
        0,
        3.4228538225988814e-8,
        -0.9999998807907104,
        0,
        0,
        0.9999998807907104,
        3.4228538225988814e-8,
        0,
        0,
        0,
        0,
        1
      ]
    }
  ],
  "meshes": [
    {
      "primitives": [
        {
          "attributes": {
            "NORMAL": 0,
            "POSITION": 1,
            "TEXCOORD_0": 2
          },
          "material": 0,
          "mode": 4,
          "indices": 3
        }
      ]
    },
    {
      "primitives": [
        {
          "attributes": {
            "NORMAL": 4,
            "POSITION": 5,
            "TEXCOORD_0": 6
          },
          "material": 1,
          "mode": 4,
          "indices": 7
        }
      ]
    },
    {
      "primitives": [
        {
          "attributes": {
            "NORMAL": 8,
            "POSITION": 9,
            "TEXCOORD_0": 10
          },
          "material": 2,
          "mode": 4,
          "indices": 11
        }
      ]
    },
    {
      "primitives": [
        {
          "attributes": {
            "NORMAL": 12,
            "POSITION": 13,
            "TEXCOORD_0": 14
          },
          "material": 3,
          "mode": 4,
          "indices": 15
        }
      ]
    }
  ],
  "materials": [
    {
      "pbrMetallicRoughness": {
        "baseColorFactor": [
          0.11372549019607843,
          0.11372549019607843,
          0.11372549019607843,
          1
        ],
        "metallicFactor": 0,
        "roughnessFactor": 0.5
      },
      "emissiveFactor": [
        0,
        0,
        0
      ],
      "alphaMode": "OPAQUE",
      "doubleSided": true
    },
    {
      "pbrMetallicRoughness": {
        "baseColorFactor": [
          0.2196078431372549,
          0.2196078431372549,
          0.2196078431372549,
          1
        ],
        "metallicFactor": 0,
        "roughnessFactor": 0.5
      },
      "emissiveFactor": [
        0,
        0,
        0
      ],
      "alphaMode": "BLEND",
      "doubleSided": true
    },
    {
      "pbrMetallicRoughness": {
        "baseColorFactor": [
          0,
          0,
          0,
          1
        ],
        "metallicFactor": 0,
        "roughnessFactor": 0.5
      },
      "emissiveFactor": [
        0,
        0,
        0
      ],
      "alphaMode": "OPAQUE",
      "doubleSided": true
    },
    {
      "pbrMetallicRoughness": {
        "baseColorFactor": [
          1,
          1,
          1,
          0.4
        ],
        "metallicFactor": 0,
        "roughnessFactor": 0.111429
      },
      "emissiveFactor": [
        0,
        0,
        0
      ],
      "alphaMode": "BLEND",
      "doubleSided": true
    }
  ]
}